<svg id="visual" viewBox="0 0 900 600" width="900" height="600" xmlns="http://www.w3.org/2000/svg" xmlns:xlink="http://www.w3.org/1999/xlink" version="1.1"><rect x="0" y="0" width="900" height="600" fill="#001220"></rect><defs><linearGradient id="grad1_0" x1="33.3%" y1="0%" x2="100%" y2="100%"><stop offset="20%" stop-color="#001220" stop-opacity="1"></stop><stop offset="80%" stop-color="#001220" stop-opacity="1"></stop></linearGradient></defs><defs><linearGradient id="grad2_0" x1="0%" y1="0%" x2="66.7%" y2="100%"><stop offset="20%" stop-color="#001220" stop-opacity="1"></stop><stop offset="80%" stop-color="#001220" stop-opacity="1"></stop></linearGradient></defs><g transform="translate(900, 0)"><path d="M0 486.7C-71.2 487.2 -142.4 487.6 -186.3 449.7C-230.1 411.8 -246.6 335.6 -288.5 288.5C-330.4 241.4 -397.9 223.5 -435.1 180.2C-472.4 137 -479.6 68.5 -486.7 0L0 0Z" fill="#FBAE3C"></path></g><g transform="translate(0, 600)"><path d="M0 -486.7C51.5 -451.5 103.1 -416.3 164.9 -398.2C226.8 -380.1 299 -379.3 344.2 -344.2C389.4 -309.1 407.6 -239.9 426.8 -176.8C446.1 -113.7 466.4 -56.9 486.7 0L0 0Z" fill="#FBAE3C"></path></g></svg>