<svg data-name="Hero Area" xmlns="http://www.w3.org/2000/svg" width="58" height="58" viewBox="0 0 58 58"><defs><style>
                                                .cls-1 {
                                                fill: #b250fe;
                                                }
                                        
                                                .cls-1, .cls-2 {
                                                fill-rule: evenodd;
                                                }
                                        
                                                .cls-2 {
                                                fill: #fff;
                                                }
                                            </style></defs><g data-name="Menu Area"><g id="Menu_bar" data-name="Menu bar"><path id="Bg" class="cls-1" d="M7.853,2.283c14.9-3.89,29.969-1.4,43.467.819a7.923,7.923,0,0,1,5.735,5.422c3.111,14.141-.428,28.636-1.166,42.981a5.157,5.157,0,0,1-4.773,4.875c-13.49.568-23.463,3.285-41.787,0.9C5.948,56.807,2.348,54.2,1.9,51.7-0.683,37.877.2,23.508,2.194,8.757a8.71,8.71,0,0,1,5.66-6.473"/><path id="Bar" class="cls-2" d="M16,17H42a2,2,0,0,1,0,4H16A2,2,0,0,1,16,17Zm0,10H42a2,2,0,0,1,0,4H16A2,2,0,0,1,16,27Zm0,10H42a2,2,0,0,1,0,4H16A2,2,0,0,1,16,37Z"/></g></g></svg>