<svg id="visual" viewBox="0 0 900 600" width="900" height="600" xmlns="http://www.w3.org/2000/svg" xmlns:xlink="http://www.w3.org/1999/xlink" version="1.1"><rect x="0" y="0" width="900" height="600" fill="#001220"></rect><path d="M0 358L21.5 372C43 386 86 414 128.8 418C171.7 422 214.3 402 257.2 399.3C300 396.7 343 411.3 385.8 417C428.7 422.7 471.3 419.3 514.2 417.2C557 415 600 414 642.8 406.7C685.7 399.3 728.3 385.7 771.2 384.7C814 383.7 857 395.3 878.5 401.2L900 407L900 601L878.5 601C857 601 814 601 771.2 601C728.3 601 685.7 601 642.8 601C600 601 557 601 514.2 601C471.3 601 428.7 601 385.8 601C343 601 300 601 257.2 601C214.3 601 171.7 601 128.8 601C86 601 43 601 21.5 601L0 601Z" fill="#fa7268"></path><path d="M0 435L21.5 433.5C43 432 86 429 128.8 431.7C171.7 434.3 214.3 442.7 257.2 449.2C300 455.7 343 460.3 385.8 456.3C428.7 452.3 471.3 439.7 514.2 434.2C557 428.7 600 430.3 642.8 428C685.7 425.7 728.3 419.3 771.2 425.5C814 431.7 857 450.3 878.5 459.7L900 469L900 601L878.5 601C857 601 814 601 771.2 601C728.3 601 685.7 601 642.8 601C600 601 557 601 514.2 601C471.3 601 428.7 601 385.8 601C343 601 300 601 257.2 601C214.3 601 171.7 601 128.8 601C86 601 43 601 21.5 601L0 601Z" fill="#ef5f67"></path><path d="M0 450L21.5 458.2C43 466.3 86 482.7 128.8 492.5C171.7 502.3 214.3 505.7 257.2 497.2C300 488.7 343 468.3 385.8 462.7C428.7 457 471.3 466 514.2 470.8C557 475.7 600 476.3 642.8 478C685.7 479.7 728.3 482.3 771.2 483.5C814 484.7 857 484.3 878.5 484.2L900 484L900 601L878.5 601C857 601 814 601 771.2 601C728.3 601 685.7 601 642.8 601C600 601 557 601 514.2 601C471.3 601 428.7 601 385.8 601C343 601 300 601 257.2 601C214.3 601 171.7 601 128.8 601C86 601 43 601 21.5 601L0 601Z" fill="#e34c67"></path><path d="M0 504L21.5 505.5C43 507 86 510 128.8 513.7C171.7 517.3 214.3 521.7 257.2 519C300 516.3 343 506.7 385.8 507.3C428.7 508 471.3 519 514.2 516.8C557 514.7 600 499.3 642.8 500.3C685.7 501.3 728.3 518.7 771.2 523.7C814 528.7 857 521.3 878.5 517.7L900 514L900 601L878.5 601C857 601 814 601 771.2 601C728.3 601 685.7 601 642.8 601C600 601 557 601 514.2 601C471.3 601 428.7 601 385.8 601C343 601 300 601 257.2 601C214.3 601 171.7 601 128.8 601C86 601 43 601 21.5 601L0 601Z" fill="#d53867"></path><path d="M0 530L21.5 533.7C43 537.3 86 544.7 128.8 551C171.7 557.3 214.3 562.7 257.2 563.8C300 565 343 562 385.8 557.3C428.7 552.7 471.3 546.3 514.2 547C557 547.7 600 555.3 642.8 554C685.7 552.7 728.3 542.3 771.2 537.8C814 533.3 857 534.7 878.5 535.3L900 536L900 601L878.5 601C857 601 814 601 771.2 601C728.3 601 685.7 601 642.8 601C600 601 557 601 514.2 601C471.3 601 428.7 601 385.8 601C343 601 300 601 257.2 601C214.3 601 171.7 601 128.8 601C86 601 43 601 21.5 601L0 601Z" fill="#c62368"></path></svg>