<svg id="visual" viewBox="0 0 960 540" width="960" height="540" xmlns="http://www.w3.org/2000/svg" xmlns:xlink="http://www.w3.org/1999/xlink" version="1.1"><rect x="0" y="0" width="960" height="540" fill="#cedee9"></rect><defs><linearGradient id="grad1_0" x1="43.8%" y1="0%" x2="100%" y2="100%"><stop offset="14.444444444444446%" stop-color="#1a0f5d" stop-opacity="1"></stop><stop offset="85.55555555555554%" stop-color="#1a0f5d" stop-opacity="1"></stop></linearGradient></defs><defs><linearGradient id="grad1_1" x1="43.8%" y1="0%" x2="100%" y2="100%"><stop offset="14.444444444444446%" stop-color="#1a0f5d" stop-opacity="1"></stop><stop offset="85.55555555555554%" stop-color="#304486" stop-opacity="1"></stop></linearGradient></defs><defs><linearGradient id="grad1_2" x1="43.8%" y1="0%" x2="100%" y2="100%"><stop offset="14.444444444444446%" stop-color="#5777aa" stop-opacity="1"></stop><stop offset="85.55555555555554%" stop-color="#304486" stop-opacity="1"></stop></linearGradient></defs><defs><linearGradient id="grad1_3" x1="43.8%" y1="0%" x2="100%" y2="100%"><stop offset="14.444444444444446%" stop-color="#5777aa" stop-opacity="1"></stop><stop offset="85.55555555555554%" stop-color="#8cabc9" stop-opacity="1"></stop></linearGradient></defs><defs><linearGradient id="grad1_4" x1="43.8%" y1="0%" x2="100%" y2="100%"><stop offset="14.444444444444446%" stop-color="#cedee9" stop-opacity="1"></stop><stop offset="85.55555555555554%" stop-color="#8cabc9" stop-opacity="1"></stop></linearGradient></defs><defs><linearGradient id="grad2_0" x1="0%" y1="0%" x2="56.3%" y2="100%"><stop offset="14.444444444444446%" stop-color="#1a0f5d" stop-opacity="1"></stop><stop offset="85.55555555555554%" stop-color="#1a0f5d" stop-opacity="1"></stop></linearGradient></defs><defs><linearGradient id="grad2_1" x1="0%" y1="0%" x2="56.3%" y2="100%"><stop offset="14.444444444444446%" stop-color="#304486" stop-opacity="1"></stop><stop offset="85.55555555555554%" stop-color="#1a0f5d" stop-opacity="1"></stop></linearGradient></defs><defs><linearGradient id="grad2_2" x1="0%" y1="0%" x2="56.3%" y2="100%"><stop offset="14.444444444444446%" stop-color="#304486" stop-opacity="1"></stop><stop offset="85.55555555555554%" stop-color="#5777aa" stop-opacity="1"></stop></linearGradient></defs><defs><linearGradient id="grad2_3" x1="0%" y1="0%" x2="56.3%" y2="100%"><stop offset="14.444444444444446%" stop-color="#8cabc9" stop-opacity="1"></stop><stop offset="85.55555555555554%" stop-color="#5777aa" stop-opacity="1"></stop></linearGradient></defs><defs><linearGradient id="grad2_4" x1="0%" y1="0%" x2="56.3%" y2="100%"><stop offset="14.444444444444446%" stop-color="#8cabc9" stop-opacity="1"></stop><stop offset="85.55555555555554%" stop-color="#cedee9" stop-opacity="1"></stop></linearGradient></defs><g transform="translate(960, 0)"><path d="M0 270C-24.5 268.2 -49 266.4 -68.6 256C-88.2 245.5 -102.9 226.3 -125 216.5C-147.1 206.7 -176.4 206.2 -190.9 190.9C-205.4 175.7 -205 145.7 -213.9 123.5C-222.9 101.3 -241.2 86.8 -252.1 67.6C-263 48.3 -266.5 24.1 -270 0L0 0Z" fill="#acc4d9"></path><path d="M0 216C-19.6 214.6 -39.2 213.2 -54.9 204.8C-70.6 196.4 -82.4 181.1 -100 173.2C-117.6 165.3 -141.2 164.9 -152.7 152.7C-164.3 140.5 -164 116.6 -171.1 98.8C-178.3 81 -193 69.5 -201.7 54C-210.4 38.6 -213.2 19.3 -216 0L0 0Z" fill="#7091ba"></path><path d="M0 162C-14.7 160.9 -29.4 159.9 -41.2 153.6C-52.9 147.3 -61.8 135.8 -75 129.9C-88.2 124 -105.9 123.7 -114.6 114.6C-123.2 105.4 -123 87.4 -128.3 74.1C-133.7 60.8 -144.7 52.1 -151.3 40.5C-157.8 29 -159.9 14.5 -162 0L0 0Z" fill="#425d99"></path><path d="M0 108C-9.8 107.3 -19.6 106.6 -27.4 102.4C-35.3 98.2 -41.2 90.5 -50 86.6C-58.8 82.7 -70.6 82.5 -76.4 76.4C-82.2 70.3 -82 58.3 -85.6 49.4C-89.1 40.5 -96.5 34.7 -100.8 27C-105.2 19.3 -106.6 9.7 -108 0L0 0Z" fill="#232a73"></path><path d="M0 54C-4.9 53.6 -9.8 53.3 -13.7 51.2C-17.6 49.1 -20.6 45.3 -25 43.3C-29.4 41.3 -35.3 41.2 -38.2 38.2C-41.1 35.1 -41 29.1 -42.8 24.7C-44.6 20.3 -48.2 17.4 -50.4 13.5C-52.6 9.7 -53.3 4.8 -54 0L0 0Z" fill="#1a0f5d"></path></g><g transform="translate(0, 540)"><path d="M0 -270C20.7 -252.6 41.3 -235.2 60 -224.1C78.8 -213 95.6 -208.3 119 -206.1C142.4 -204 172.6 -204.5 190.9 -190.9C209.3 -177.4 215.9 -149.8 217.4 -125.5C218.9 -101.2 215.2 -80.2 223.1 -59.8C231 -39.4 250.5 -19.7 270 0L0 0Z" fill="#acc4d9"></path><path d="M0 -216C16.5 -202.1 33.1 -188.1 48 -179.3C63 -170.4 76.4 -166.6 95.2 -164.9C114 -163.2 138 -163.6 152.7 -152.7C167.4 -141.9 172.7 -119.8 173.9 -100.4C175.1 -81 172.2 -64.1 178.5 -47.8C184.8 -31.5 200.4 -15.8 216 0L0 0Z" fill="#7091ba"></path><path d="M0 -162C12.4 -151.6 24.8 -141.1 36 -134.5C47.3 -127.8 57.3 -125 71.4 -123.7C85.5 -122.4 103.5 -122.7 114.6 -114.6C125.6 -106.4 129.5 -89.9 130.4 -75.3C131.3 -60.7 129.1 -48.1 133.9 -35.9C138.6 -23.6 150.3 -11.8 162 0L0 0Z" fill="#425d99"></path><path d="M0 -108C8.3 -101 16.5 -94.1 24 -89.6C31.5 -85.2 38.2 -83.3 47.6 -82.4C57 -81.6 69 -81.8 76.4 -76.4C83.7 -71 86.4 -59.9 86.9 -50.2C87.5 -40.5 86.1 -32.1 89.3 -23.9C92.4 -15.8 100.2 -7.9 108 0L0 0Z" fill="#232a73"></path><path d="M0 -54C4.1 -50.5 8.3 -47 12 -44.8C15.8 -42.6 19.1 -41.7 23.8 -41.2C28.5 -40.8 34.5 -40.9 38.2 -38.2C41.9 -35.5 43.2 -30 43.5 -25.1C43.8 -20.2 43 -16 44.6 -12C46.2 -7.9 50.1 -3.9 54 0L0 0Z" fill="#1a0f5d"></path></g></svg>